<svg width="175" height="93" viewBox="0 0 175 93" fill="none" xmlns="http://www.w3.org/2000/svg">
<path d="M10.3343 26.8156L10.6518 26.022L10.8299 25.186C12.0169 19.6162 14.3217 16.4141 17.2165 14.3445C20.3462 12.1068 25.1994 10.4653 32.6024 10.0839C47.7007 9.3062 69.5066 13.9062 97.8324 22.6476L98.805 22.9478L99.8181 23.0458C106.046 23.6484 112.406 23.1823 118.149 22.613C119.833 22.446 121.449 22.2727 123.018 22.1044C127.097 21.6666 130.859 21.2629 134.683 21.0948C144.967 20.6427 152.201 22.142 157.829 28.0188C161.052 31.3833 163.66 37.4001 164.185 44.9303C164.701 52.3328 163.11 60.1646 159.234 66.605C155.461 72.8725 149.386 78.0929 140.134 80.5416C131.025 82.9522 118.159 82.8388 100.632 77.2433C92.7589 70.5275 82.2904 65.1066 71.9317 60.4586C65.3197 57.4918 57.9716 54.5192 50.962 51.6836C46.3809 49.8303 41.9444 48.0356 37.9526 46.3392C27.0868 41.7217 18.7634 37.5453 13.8119 33.3802C11.4126 31.3619 10.4892 29.8978 10.1724 29.0774C9.97885 28.576 9.8528 28.0195 10.3343 26.8156Z" stroke="#1478CE" stroke-width="20"/>
</svg>
